<?xml version="1.0" encoding="UTF-8" standalone="no"?>
<!-- Created with Inkscape (http://www.inkscape.org/) -->

<svg
   xmlns:dc="http://purl.org/dc/elements/1.1/"
   xmlns:cc="http://creativecommons.org/ns#"
   xmlns:rdf="http://www.w3.org/1999/02/22-rdf-syntax-ns#"
   xmlns:svg="http://www.w3.org/2000/svg"
   xmlns="http://www.w3.org/2000/svg"
   xmlns:sodipodi="http://sodipodi.sourceforge.net/DTD/sodipodi-0.dtd"
   xmlns:inkscape="http://www.inkscape.org/namespaces/inkscape"
   width="83.848915mm"
   height="51.884159mm"
   viewBox="0 0 297.10246 183.84151"
   id="svg2"
   version="1.1"
   inkscape:version="0.91 r13725"
   sodipodi:docname="yozik.svg"
   enable-background="new">
  <defs
     id="defs4">
    <clipPath
       clipPathUnits="userSpaceOnUse"
       id="clipPath4374">
      <path
         style="fill:none"
         d="m 215.86693,280.03741 c -2.496,-0.8693 -7.19496,-5.05943 -8.37218,-7.46558 -1.20686,-2.46673 -1.50043,-5.68313 -0.69472,-7.61145 1.07751,-2.57885 4.73741,-6.71492 8.89012,-10.04678 l 1.41422,-1.13467 -5.65686,-0.0365 c -3.11127,-0.02 -14.90007,-0.15618 -26.19733,-0.3025 l -20.54049,-0.26605 -3.03145,-1.70157 c -5.40881,-3.03601 -7.95388,-5.57016 -10.49011,-10.44511 -1.50148,-2.88603 -2.24061,-6.36362 -1.54239,-7.25692 0.15592,-0.19948 1.87447,-1.30038 3.81902,-2.44646 7.86014,-4.6326 14.13175,-9.22754 17.73059,-12.99043 2.10893,-2.20507 2.2219,-2.42143 3.76035,-7.20225 2.18981,-6.80496 2.85148,-10.21528 2.87699,-14.82839 0.0199,-3.59521 -0.40022,-6.1031 -5.55967,-33.18897 -3.06965,-16.11493 -5.53439,-29.34644 -5.47721,-29.40333 0.0572,-0.0569 5.17733,2.76047 11.3781,6.26082 7.78321,4.39364 11.35474,6.23381 11.5345,5.94296 0.14321,-0.23171 2.61959,-6.05708 5.50308,-12.94526 3.53527,-8.44521 5.38726,-12.46849 5.68659,-12.35363 0.24414,0.0937 4.83557,4.11556 10.20318,8.9375 5.36761,4.82194 9.86874,8.80585 10.00252,8.85314 0.13378,0.0473 2.94228,-5.04387 6.24113,-11.31371 3.29885,-6.26983 6.33183,-11.99169 6.73997,-12.71525 l 0.74208,-1.31556 8.99315,10.07861 c 8.52932,9.5588 9.02151,10.04386 9.54306,9.40471 0.30245,-0.37065 4.02566,-5.62658 8.2738,-11.67987 4.24815,-6.05328 7.85062,-11.00596 8.00549,-11.00596 0.15488,0 3.88854,5.34754 8.29703,11.88341 l 8.01544,11.88342 0.9792,-1.01165 c 0.53856,-0.55641 4.75567,-5.22777 9.37137,-10.38081 4.61569,-5.15304 8.50105,-9.49008 8.63412,-9.63786 0.13308,-0.14778 2.92262,5.65933 6.19899,12.9047 3.27637,7.24536 6.00338,13.23178 6.06003,13.30314 0.0566,0.0714 5.21734,-3.56468 11.46822,-8.08009 6.25088,-4.51541 11.48767,-8.07398 11.63731,-7.90792 0.14964,0.16605 1.76512,6.32194 3.58996,13.67976 1.82484,7.35781 3.41875,13.5422 3.54204,13.74308 0.13579,0.22128 5.06674,-1.81669 12.5093,-5.17011 6.75683,-3.04444 12.38353,-5.43728 12.50377,-5.31742 0.2282,0.22748 0.64543,13.75624 0.71095,23.05297 l 0.038,5.39169 0.82864,0 c 0.45576,0 6.34576,-0.87505 13.08889,-1.94454 6.74314,-1.0695 12.45908,-1.94455 12.7021,-1.94455 0.3132,0 -0.41778,4.28132 -2.51039,14.70328 -1.62374,8.08681 -2.88782,14.76773 -2.80906,14.84648 0.0788,0.0788 6.24006,0.53902 13.69178,1.02279 7.45172,0.48377 13.59132,0.92254 13.64354,0.97503 0.0731,0.0735 -6.86032,17.97969 -10.26272,26.50443 l -0.52153,1.30669 2.73002,1.45462 c 3.51846,1.87471 7.0179,4.48977 14.03279,10.4864 3.11674,2.66432 5.80505,4.96119 5.97402,5.10415 0.41848,0.35404 -1.48066,1.28116 -10.16613,4.96289 -8.43941,3.57742 -11.37008,5.11852 -13.54344,7.12184 -1.3347,1.2303 -1.52317,1.58941 -1.52317,2.9023 0,2.18971 1.06738,3.4578 5.48008,6.51057 3.65802,2.53068 3.88937,2.86628 3.88749,5.6394 -0.001,1.90062 -0.17986,2.65172 -0.93662,3.93936 -1.26155,2.14654 -3.43998,4.57056 -6.24961,6.95414 l -2.33147,1.97793 -2.75763,-0.21266 c -5.70169,-0.43968 -9.67449,-2.49399 -26.08362,-13.4877 -11.47254,-7.68632 -16.30742,-10.45865 -20.87485,-11.96968 -2.97091,-0.98287 -7.13529,-1.36981 -21.90511,-2.03536 -10.2242,-0.46072 -47.24713,-0.22964 -57.27565,0.35749 -10.77426,0.63078 -22.7744,1.46841 -23.62038,1.64872 -0.4489,0.0957 -2.04631,1.32437 -3.54979,2.73041 -1.50348,1.40603 -3.92043,3.52195 -5.371,4.70203 -6.02866,4.90451 -21.81518,16.34936 -24.27498,17.59879 -1.43425,0.72851 -4.71212,0.7222 -6.82346,-0.0131 l 0,10e-6 z"
         id="path4376"
         inkscape:connector-curvature="0" />
    </clipPath>
    <clipPath
       clipPathUnits="userSpaceOnUse"
       id="clipPath4378">
      <path
         style="fill:none"
         d="m 215.86693,280.03741 c -2.496,-0.8693 -7.19496,-5.05943 -8.37218,-7.46558 -1.20686,-2.46673 -1.50043,-5.68313 -0.69472,-7.61145 1.07751,-2.57885 4.73741,-6.71492 8.89012,-10.04678 l 1.41422,-1.13467 -5.65686,-0.0365 c -3.11127,-0.02 -14.90007,-0.15618 -26.19733,-0.3025 l -20.54049,-0.26605 -3.03145,-1.70157 c -5.40881,-3.03601 -7.95388,-5.57016 -10.49011,-10.44511 -1.50148,-2.88603 -2.24061,-6.36362 -1.54239,-7.25692 0.15592,-0.19948 1.87447,-1.30038 3.81902,-2.44646 7.86014,-4.6326 14.13175,-9.22754 17.73059,-12.99043 2.10893,-2.20507 2.2219,-2.42143 3.76035,-7.20225 2.18981,-6.80496 2.85148,-10.21528 2.87699,-14.82839 0.0199,-3.59521 -0.40022,-6.1031 -5.55967,-33.18897 -3.06965,-16.11493 -5.53439,-29.34644 -5.47721,-29.40333 0.0572,-0.0569 5.17733,2.76047 11.3781,6.26082 7.78321,4.39364 11.35474,6.23381 11.5345,5.94296 0.14321,-0.23171 2.61959,-6.05708 5.50308,-12.94526 3.53527,-8.44521 5.38726,-12.46849 5.68659,-12.35363 0.24414,0.0937 4.83557,4.11556 10.20318,8.9375 5.36761,4.82194 9.86874,8.80585 10.00252,8.85314 0.13378,0.0473 2.94228,-5.04387 6.24113,-11.31371 3.29885,-6.26983 6.33183,-11.99169 6.73997,-12.71525 l 0.74208,-1.31556 8.99315,10.07861 c 8.52932,9.5588 9.02151,10.04386 9.54306,9.40471 0.30245,-0.37065 4.02566,-5.62658 8.2738,-11.67987 4.24815,-6.05328 7.85062,-11.00596 8.00549,-11.00596 0.15488,0 3.88854,5.34754 8.29703,11.88341 l 8.01544,11.88342 0.9792,-1.01165 c 0.53856,-0.55641 4.75567,-5.22777 9.37137,-10.38081 4.61569,-5.15304 8.50105,-9.49008 8.63412,-9.63786 0.13308,-0.14778 2.92262,5.65933 6.19899,12.9047 3.27637,7.24536 6.00338,13.23178 6.06003,13.30314 0.0566,0.0714 5.21734,-3.56468 11.46822,-8.08009 6.25088,-4.51541 11.48767,-8.07398 11.63731,-7.90792 0.14964,0.16605 1.76512,6.32194 3.58996,13.67976 1.82484,7.35781 3.41875,13.5422 3.54204,13.74308 0.13579,0.22128 5.06674,-1.81669 12.5093,-5.17011 6.75683,-3.04444 12.38353,-5.43728 12.50377,-5.31742 0.2282,0.22748 0.64543,13.75624 0.71095,23.05297 l 0.038,5.39169 0.82864,0 c 0.45576,0 6.34576,-0.87505 13.08889,-1.94454 6.74314,-1.0695 12.45908,-1.94455 12.7021,-1.94455 0.3132,0 -0.41778,4.28132 -2.51039,14.70328 -1.62374,8.08681 -2.88782,14.76773 -2.80906,14.84648 0.0788,0.0788 6.24006,0.53902 13.69178,1.02279 7.45172,0.48377 13.59132,0.92254 13.64354,0.97503 0.0731,0.0735 -6.86032,17.97969 -10.26272,26.50443 l -0.52153,1.30669 2.73002,1.45462 c 3.51846,1.87471 7.0179,4.48977 14.03279,10.4864 3.11674,2.66432 5.80505,4.96119 5.97402,5.10415 0.41848,0.35404 -1.48066,1.28116 -10.16613,4.96289 -8.43941,3.57742 -11.37008,5.11852 -13.54344,7.12184 -1.3347,1.2303 -1.52317,1.58941 -1.52317,2.9023 0,2.18971 1.06738,3.4578 5.48008,6.51057 3.65802,2.53068 3.88937,2.86628 3.88749,5.6394 -0.001,1.90062 -0.17986,2.65172 -0.93662,3.93936 -1.26155,2.14654 -3.43998,4.57056 -6.24961,6.95414 l -2.33147,1.97793 -2.75763,-0.21266 c -5.70169,-0.43968 -9.67449,-2.49399 -26.08362,-13.4877 -11.47254,-7.68632 -16.30742,-10.45865 -20.87485,-11.96968 -2.97091,-0.98287 -7.13529,-1.36981 -21.90511,-2.03536 -10.2242,-0.46072 -47.24713,-0.22964 -57.27565,0.35749 -10.77426,0.63078 -22.7744,1.46841 -23.62038,1.64872 -0.4489,0.0957 -2.04631,1.32437 -3.54979,2.73041 -1.50348,1.40603 -3.92043,3.52195 -5.371,4.70203 -6.02866,4.90451 -21.81518,16.34936 -24.27498,17.59879 -1.43425,0.72851 -4.71212,0.7222 -6.82346,-0.0131 l 0,10e-6 z"
         id="path4380"
         inkscape:connector-curvature="0" />
    </clipPath>
    <mask
       maskUnits="userSpaceOnUse"
       id="mask4490">
      <ellipse
         style="opacity:1;fill:#ffffff;fill-opacity:1;stroke:#000000;stroke-width:0;stroke-linejoin:miter;stroke-miterlimit:4;stroke-dasharray:none;stroke-opacity:1"
         id="ellipse4492"
         cx="243.50002"
         cy="227.39383"
         rx="112.5"
         ry="62" />
    </mask>
  </defs>
  <sodipodi:namedview
     id="base"
     pagecolor="#ffffff"
     bordercolor="#666666"
     borderopacity="1.0"
     inkscape:pageopacity="0.0"
     inkscape:pageshadow="2"
     inkscape:zoom="2"
     inkscape:cx="128.54188"
     inkscape:cy="60.191769"
     inkscape:document-units="px"
     inkscape:current-layer="layer2"
     showgrid="false"
     inkscape:window-width="1274"
     inkscape:window-height="760"
     inkscape:window-x="1366"
     inkscape:window-y="83"
     inkscape:window-maximized="0"
     fit-margin-top="0"
     fit-margin-left="0"
     fit-margin-right="0"
     fit-margin-bottom="0" />
  <metadata
     id="metadata7">
    <rdf:RDF>
      <cc:Work
         rdf:about="">
        <dc:format>image/svg+xml</dc:format>
        <dc:type
           rdf:resource="http://purl.org/dc/dcmitype/StillImage" />
        <dc:title></dc:title>
      </cc:Work>
    </rdf:RDF>
  </metadata>
  <g
     inkscape:groupmode="layer"
     id="layer2"
     inkscape:label="Logo"
     style="display:inline;"
     transform="translate(-138.00001,-107.55232)">
    <path
       style="opacity:0.53699999;fill:#ff0000;fill-opacity:1;fill-rule:evenodd;stroke:#aa0000;stroke-width:1;stroke-linecap:butt;stroke-linejoin:miter;stroke-miterlimit:4;stroke-dasharray:none;stroke-opacity:1"
       d="m 165.80094,132.31888 11.34192,60.04332 c 1.13097,7.7381 -1.72399,15.97619 -4.51786,23.71429 -4.48854,5.36911 -12.18494,10.67863 -23.33929,17 -1.4374,2.68518 -0.21909,6.05465 3.38388,11.76405 2.21754,2.89883 5.17985,5.71409 12.2159,8.92857 l 50.61959,0.58801 c -3.83409,2.94017 -6.92548,6.17741 -9.07651,9.7908 -1.7288,3.69856 -0.34196,7.63263 1.42857,10.35714 2.24634,2.58328 4.73768,4.04092 5.35715,5 6.31497,3.52519 10.10018,1.11661 11.07142,0.35714 32.57116,-22.5725 28.67229,-23.3383 31.78572,-24.28571 46.95627,-3.95344 85.82846,-2.21817 100,-0.71429 13.0971,2.95586 28.82456,18.74183 44.28571,25.35715 4.20878,0.99449 8.09117,1.66259 9.64286,0 5.12892,-4.49899 7.02406,-6.8447 8.31889,-9.53826 0.72321,-4.53402 0.59693,-6.24813 -3.08802,-8.31889 -6.54718,-4.26102 -6.40488,-5.52731 -6.0944,-7.70023 2.71422,-5.5242 27.32959,-12.03694 25.37246,-14.13013 -7.62648,-5.94495 -13.19493,-12.60864 -22.72322,-17.09821 L 422.85714,195.21935 395,193.43363 l 6.07143,-30 -27.14286,4.28572 -0.71428,-29.28572 -25.35715,11.42857 -7.14285,-28.57143 -23.21429,16.78572 -12.14286,-26.78572 -19.28571,21.42858 -16.42857,-24.28572 -16.78572,23.92857 -18.21428,-20.35714 -13.57143,25.71429 -20.71429,-18.57143 -11.07143,26.42857 z"
       id="path3476"
       inkscape:connector-curvature="0"
       sodipodi:nodetypes="ccccccccccccccccccccccccccccccccccccc"
       clip-path="url(#clipPath4378)"
       mask="url(#mask4490)" />
    <path
       style="fill:none"
       d="m 216.30844,280.13105 c -2.63844,-0.85207 -7.07616,-4.71335 -8.59703,-7.48032 -0.76351,-1.38908 -1.13642,-2.92057 -1.13642,-4.66712 0,-3.39897 1.61004,-5.94989 6.7371,-10.67416 l 3.88885,-3.58333 -26.13719,-0.36432 -26.1372,-0.36431 -3.38937,-1.78107 c -1.86416,-0.97959 -4.4968,-2.84285 -5.8503,-4.14058 -2.85807,-2.74028 -6.18551,-8.93815 -6.18551,-11.52145 0,-1.45076 0.29363,-1.88833 1.89404,-2.82248 5.70995,-3.33288 14.16131,-9.41516 17.67398,-12.71964 l 4.00979,-3.77211 2.11368,-6.46288 c 1.16252,-3.55458 2.32986,-8.22683 2.59407,-10.38277 0.56727,-4.62871 0.59907,-4.42306 -6.26687,-40.52682 -2.58859,-13.61181 -4.65011,-24.81762 -4.58115,-24.90181 0.069,-0.0842 5.18701,2.70236 11.37345,6.19234 6.18644,3.48998 11.2973,6.28628 11.35745,6.21399 0.0602,-0.0723 2.55542,-5.98381 5.54503,-13.13673 l 5.43565,-13.0053 4.60375,4.18979 c 9.93006,9.03718 15.55336,13.99213 15.87947,13.99213 0.18762,0 3.27958,-5.56847 6.87101,-12.37437 3.59144,-6.8059 6.68664,-12.37437 6.87823,-12.37437 0.28617,0 12.06817,12.94815 16.72924,18.38506 l 1.25594,1.465 8.21257,-11.6928 c 4.51692,-6.43103 8.3734,-11.69279 8.56996,-11.69279 0.19656,0 3.86994,5.22421 8.16307,11.60936 4.29313,6.38515 8.03298,11.5945 8.31077,11.57634 0.27779,-0.0182 4.6824,-4.69565 9.78801,-10.39439 l 9.28292,-10.36135 5.78353,12.80088 c 3.18094,7.04049 5.9476,12.97181 6.14815,13.1807 0.20054,0.20889 5.43622,-3.28482 11.63483,-7.76382 6.41271,-4.63369 11.40825,-7.91966 11.59051,-7.624 0.17616,0.2858 1.77078,6.39329 3.5436,13.5722 1.77281,7.17891 3.39182,13.23969 3.5978,13.46839 0.20598,0.22871 5.91494,-2.07964 12.6866,-5.12965 l 12.31209,-5.54548 0.38742,14.18755 c 0.21308,7.80315 0.50174,14.30186 0.64146,14.44158 0.13971,0.13972 6.10205,-0.65893 13.24964,-1.77477 7.14758,-1.11583 13.06838,-1.97568 13.15733,-1.91077 0.089,0.0649 -1.13836,6.62136 -2.72737,14.56988 -1.589,7.94852 -2.75389,14.58707 -2.58862,14.75233 0.16526,0.16526 6.22122,0.69064 13.45769,1.1675 7.23647,0.47687 13.26571,0.97553 13.39832,1.10814 0.13261,0.13261 -2.00772,5.95979 -4.75628,12.94931 -2.74857,6.98951 -5.13225,13.13308 -5.29707,13.65238 -0.24139,0.76053 0.51228,1.4429 3.87496,3.50833 2.29604,1.41029 6.01518,4.11816 8.26476,6.01749 2.24958,1.89932 5.50446,4.65013 7.23308,6.11289 l 3.14294,2.65958 -3.69755,1.71807 c -2.03365,0.94493 -6.28542,2.794 -9.44837,4.10904 -6.89068,2.86489 -11.73794,5.97677 -12.2185,7.84413 -0.58084,2.25707 0.73654,4.25716 4.76749,7.23819 2.08636,1.54294 3.94989,3.05857 4.14117,3.36807 0.60498,0.97887 0.28993,4.91955 -0.51825,6.4824 -0.42756,0.82682 -2.4247,3.13032 -4.43807,5.11889 l -3.66068,3.61558 -3.81734,-0.25526 c -5.1438,-0.34397 -8.71917,-2.19074 -24.28362,-12.54314 -12.2546,-8.15092 -19.06877,-12.01916 -22.91175,-13.00646 -9.38758,-2.41174 -58.66575,-2.70959 -91.67134,-0.55408 -11.01685,0.71949 -10.84789,0.67496 -14.09241,3.71332 -4.91981,4.60719 -16.81378,13.68323 -27.39287,20.90291 -2.79194,1.90536 -5.47276,2.35991 -8.38027,1.42096 z"
       id="path3498"
       inkscape:connector-curvature="0"
       clip-path="url(#clipPath4374)" />
  </g>
  <g
     transform="translate(-138.00001,-107.55232)"
     style="display:inline;"
     inkscape:label="Logo copy"
     id="g4435"
     inkscape:groupmode="layer">
    <path
       clip-path="url(#clipPath4378)"
       sodipodi:nodetypes="ccccccccccccccccccccccccccccccccccccc"
       inkscape:connector-curvature="0"
       id="path4437"
       d="m 165.80094,132.31888 11.34192,60.04332 c 1.13097,7.7381 -1.72399,15.97619 -4.51786,23.71429 -4.48854,5.36911 -12.18494,10.67863 -23.33929,17 -1.4374,2.68518 -0.21909,6.05465 3.38388,11.76405 2.21754,2.89883 5.17985,5.71409 12.2159,8.92857 l 50.61959,0.58801 c -3.83409,2.94017 -6.92548,6.17741 -9.07651,9.7908 -1.7288,3.69856 -0.34196,7.63263 1.42857,10.35714 2.24634,2.58328 4.73768,4.04092 5.35715,5 6.31497,3.52519 10.10018,1.11661 11.07142,0.35714 32.57116,-22.5725 28.67229,-23.3383 31.78572,-24.28571 46.95627,-3.95344 85.82846,-2.21817 100,-0.71429 13.0971,2.95586 28.82456,18.74183 44.28571,25.35715 4.20878,0.99449 8.09117,1.66259 9.64286,0 5.12892,-4.49899 7.02406,-6.8447 8.31889,-9.53826 0.72321,-4.53402 0.59693,-6.24813 -3.08802,-8.31889 -6.54718,-4.26102 -6.40488,-5.52731 -6.0944,-7.70023 2.71422,-5.5242 27.32959,-12.03694 25.37246,-14.13013 -7.62648,-5.94495 -13.19493,-12.60864 -22.72322,-17.09821 L 422.85714,195.21935 395,193.43363 l 6.07143,-30 -27.14286,4.28572 -0.71428,-29.28572 -25.35715,11.42857 -7.14285,-28.57143 -23.21429,16.78572 -12.14286,-26.78572 -19.28571,21.42858 -16.42857,-24.28572 -16.78572,23.92857 -18.21428,-20.35714 -13.57143,25.71429 -20.71429,-18.57143 -11.07143,26.42857 z"
       style="opacity:0.537;fill:#ff0000;fill-opacity:1;fill-rule:evenodd;stroke:#aa0000;stroke-width:1;stroke-linecap:butt;stroke-linejoin:miter;stroke-miterlimit:4;stroke-dasharray:none;stroke-opacity:1" />
    <path
       clip-path="url(#clipPath4374)"
       inkscape:connector-curvature="0"
       id="path4439"
       d="m 216.30844,280.13105 c -2.63844,-0.85207 -7.07616,-4.71335 -8.59703,-7.48032 -0.76351,-1.38908 -1.13642,-2.92057 -1.13642,-4.66712 0,-3.39897 1.61004,-5.94989 6.7371,-10.67416 l 3.88885,-3.58333 -26.13719,-0.36432 -26.1372,-0.36431 -3.38937,-1.78107 c -1.86416,-0.97959 -4.4968,-2.84285 -5.8503,-4.14058 -2.85807,-2.74028 -6.18551,-8.93815 -6.18551,-11.52145 0,-1.45076 0.29363,-1.88833 1.89404,-2.82248 5.70995,-3.33288 14.16131,-9.41516 17.67398,-12.71964 l 4.00979,-3.77211 2.11368,-6.46288 c 1.16252,-3.55458 2.32986,-8.22683 2.59407,-10.38277 0.56727,-4.62871 0.59907,-4.42306 -6.26687,-40.52682 -2.58859,-13.61181 -4.65011,-24.81762 -4.58115,-24.90181 0.069,-0.0842 5.18701,2.70236 11.37345,6.19234 6.18644,3.48998 11.2973,6.28628 11.35745,6.21399 0.0602,-0.0723 2.55542,-5.98381 5.54503,-13.13673 l 5.43565,-13.0053 4.60375,4.18979 c 9.93006,9.03718 15.55336,13.99213 15.87947,13.99213 0.18762,0 3.27958,-5.56847 6.87101,-12.37437 3.59144,-6.8059 6.68664,-12.37437 6.87823,-12.37437 0.28617,0 12.06817,12.94815 16.72924,18.38506 l 1.25594,1.465 8.21257,-11.6928 c 4.51692,-6.43103 8.3734,-11.69279 8.56996,-11.69279 0.19656,0 3.86994,5.22421 8.16307,11.60936 4.29313,6.38515 8.03298,11.5945 8.31077,11.57634 0.27779,-0.0182 4.6824,-4.69565 9.78801,-10.39439 l 9.28292,-10.36135 5.78353,12.80088 c 3.18094,7.04049 5.9476,12.97181 6.14815,13.1807 0.20054,0.20889 5.43622,-3.28482 11.63483,-7.76382 6.41271,-4.63369 11.40825,-7.91966 11.59051,-7.624 0.17616,0.2858 1.77078,6.39329 3.5436,13.5722 1.77281,7.17891 3.39182,13.23969 3.5978,13.46839 0.20598,0.22871 5.91494,-2.07964 12.6866,-5.12965 l 12.31209,-5.54548 0.38742,14.18755 c 0.21308,7.80315 0.50174,14.30186 0.64146,14.44158 0.13971,0.13972 6.10205,-0.65893 13.24964,-1.77477 7.14758,-1.11583 13.06838,-1.97568 13.15733,-1.91077 0.089,0.0649 -1.13836,6.62136 -2.72737,14.56988 -1.589,7.94852 -2.75389,14.58707 -2.58862,14.75233 0.16526,0.16526 6.22122,0.69064 13.45769,1.1675 7.23647,0.47687 13.26571,0.97553 13.39832,1.10814 0.13261,0.13261 -2.00772,5.95979 -4.75628,12.94931 -2.74857,6.98951 -5.13225,13.13308 -5.29707,13.65238 -0.24139,0.76053 0.51228,1.4429 3.87496,3.50833 2.29604,1.41029 6.01518,4.11816 8.26476,6.01749 2.24958,1.89932 5.50446,4.65013 7.23308,6.11289 l 3.14294,2.65958 -3.69755,1.71807 c -2.03365,0.94493 -6.28542,2.794 -9.44837,4.10904 -6.89068,2.86489 -11.73794,5.97677 -12.2185,7.84413 -0.58084,2.25707 0.73654,4.25716 4.76749,7.23819 2.08636,1.54294 3.94989,3.05857 4.14117,3.36807 0.60498,0.97887 0.28993,4.91955 -0.51825,6.4824 -0.42756,0.82682 -2.4247,3.13032 -4.43807,5.11889 l -3.66068,3.61558 -3.81734,-0.25526 c -5.1438,-0.34397 -8.71917,-2.19074 -24.28362,-12.54314 -12.2546,-8.15092 -19.06877,-12.01916 -22.91175,-13.00646 -9.38758,-2.41174 -58.66575,-2.70959 -91.67134,-0.55408 -11.01685,0.71949 -10.84789,0.67496 -14.09241,3.71332 -4.91981,4.60719 -16.81378,13.68323 -27.39287,20.90291 -2.79194,1.90536 -5.47276,2.35991 -8.38027,1.42096 z"
       style="fill:none" />
  </g>
  <g
     inkscape:groupmode="layer"
     id="layer4"
     inkscape:label="eye"
     transform="translate(-138.00001,-107.55232)">
    <ellipse
       style="opacity:0.49800002;fill:#000000;fill-opacity:1;stroke:#000000;stroke-width:0;stroke-linejoin:miter;stroke-miterlimit:4;stroke-dasharray:none;stroke-opacity:1"
       id="path4356"
       cx="198.63344"
       cy="205.0546"
       rx="6.2296319"
       ry="8.500001" />
  </g>
</svg>
